<svg xmlns="http://www.w3.org/2000/svg" viewBox="0 0 238.02 77.36"><defs><style>.cls-1{fill:#ed1c27;}.cls-2{fill:#fff;}</style></defs><title>BotonIngreso-Texto</title><g id="Capa_2" data-name="Capa 2"><g id="Capa_1-2" data-name="Capa 1"><rect class="cls-1" width="238.02" height="77.36" rx="21" ry="21"/><path class="cls-2" d="M33.15,49.15V23.66h5.4V49.15Z"/><path class="cls-2" d="M67.58,49.15H60.71L49.63,29.87h-.16q.33,5.11.33,7.29v12H45V23.66h6.82L62.86,42.75H63q-.26-5-.26-7V23.66h4.86Z"/><path class="cls-2" d="M83.67,34.84H93.78V48.05a28.43,28.43,0,0,1-4.63,1.13,30.17,30.17,0,0,1-4.44.32q-5.77,0-8.81-3.39t-3-9.74q0-6.17,3.53-9.62t9.79-3.45a18.94,18.94,0,0,1,7.57,1.57L92,29.19a12.83,12.83,0,0,0-5.81-1.39,7.17,7.17,0,0,0-5.61,2.35,9.13,9.13,0,0,0-2.11,6.33,10.16,10.16,0,0,0,1.7,6.34A5.88,5.88,0,0,0,85.07,45a17.41,17.41,0,0,0,3.43-.35V39.34H83.67Z"/><path class="cls-2" d="M105.25,39.37v9.78h-5.4V23.66h7.43q5.19,0,7.69,1.89a6.75,6.75,0,0,1,2.49,5.74,6.76,6.76,0,0,1-1.24,4,8.2,8.2,0,0,1-3.5,2.75q5.75,8.59,7.5,11.1h-6l-6.08-9.78Zm0-4.39H107a6.67,6.67,0,0,0,3.78-.85A3,3,0,0,0,112,31.44a2.79,2.79,0,0,0-1.25-2.58,7.57,7.57,0,0,0-3.86-.77h-1.64Z"/><path class="cls-2" d="M138.1,49.15H123.42V23.66H138.1v4.43h-9.27v5.6h8.63v4.43h-8.63v6.57h9.27Z"/><path class="cls-2" d="M158.46,42.07A6.59,6.59,0,0,1,156,47.51a10.79,10.79,0,0,1-6.91,2A16.24,16.24,0,0,1,141.84,48v-5a29.74,29.74,0,0,0,4.37,1.62,12.94,12.94,0,0,0,3.27.47,4.65,4.65,0,0,0,2.73-.68,2.33,2.33,0,0,0,1-2,2.23,2.23,0,0,0-.42-1.33,4.68,4.68,0,0,0-1.23-1.12,31.58,31.58,0,0,0-3.3-1.73A15.67,15.67,0,0,1,144.7,36a7.91,7.91,0,0,1-1.87-2.35,6.71,6.71,0,0,1-.7-3.14,6.59,6.59,0,0,1,2.29-5.32,9.52,9.52,0,0,1,6.34-1.93,14.93,14.93,0,0,1,3.79.47,26,26,0,0,1,3.77,1.32l-1.74,4.2a25.68,25.68,0,0,0-3.37-1.17,10.91,10.91,0,0,0-2.62-.33,3.47,3.47,0,0,0-2.35.71,2.36,2.36,0,0,0-.82,1.87,2.31,2.31,0,0,0,.33,1.25,3.64,3.64,0,0,0,1.05,1,32.67,32.67,0,0,0,3.43,1.79,13.63,13.63,0,0,1,4.9,3.42A6.69,6.69,0,0,1,158.46,42.07Z"/><path class="cls-2" d="M178.68,49.15l-1.85-6.07h-9.29l-1.85,6.07h-5.82l9-25.59h6.61l9,25.59Zm-3.14-10.6q-2.56-8.25-2.89-9.33t-.46-1.71q-.58,2.23-3.29,11Z"/><path class="cls-2" d="M193.11,39.37v9.78h-5.4V23.66h7.43q5.19,0,7.69,1.89a6.75,6.75,0,0,1,2.49,5.74,6.76,6.76,0,0,1-1.24,4,8.2,8.2,0,0,1-3.5,2.75q5.75,8.59,7.5,11.1h-6L196,39.37Zm0-4.39h1.74a6.67,6.67,0,0,0,3.78-.85,3,3,0,0,0,1.22-2.68,2.79,2.79,0,0,0-1.25-2.58,7.57,7.57,0,0,0-3.86-.77h-1.64Z"/></g></g></svg>