<svg xmlns="http://www.w3.org/2000/svg" viewBox="0 0 549.33 70.84"><defs><style>.cls-1{fill:#fff;}.cls-2{fill:#ed1c24;}.cls-3{fill:#fff200;}.cls-4{fill:#0095da;}.cls-5{fill:#f7941d;}.cls-6{fill:#f58220;}</style></defs><title>LogoBlanco-Davivienda</title><g id="Capa_2" data-name="Capa 2"><g id="Capa_1-2" data-name="Capa 1"><path class="cls-1" d="M333,21.52h0a3.7,3.7,0,0,1,3.62,3.62V55.27a3.62,3.62,0,0,1-7.24,0V25.14A3.7,3.7,0,0,1,333,21.52Z"/><path class="cls-1" d="M380.69,22.69c1.94.39,3.36,1.55,3,3.49a3.68,3.68,0,0,1-4.27,3c-7.37-1.29-13.83-1.81-19-.78-4.66.91-8.15,2.84-10.21,6.72a13.82,13.82,0,0,0-1.94,5c-.13,1.42-.39,3.36.65,4.91l.65-.52c.65.91.91,2.33,1.94,3.23a19.31,19.31,0,0,0,3.88,2.33c7.89,3.75,19.91,4.91,29,1.42A3.54,3.54,0,0,1,389,53.59c.78,1.94.13,3.36-1.81,4-10.86,4.14-24.83,3-34.26-1.55a24.17,24.17,0,0,1-5.3-3.23,21.46,21.46,0,0,1-4.14-4.27,13.38,13.38,0,0,1-2.71-9.18,21.63,21.63,0,0,1,2.84-8.4c3.75-5.56,8.66-7.63,15.39-8.92A73.47,73.47,0,0,1,380.69,22.69Z"/><path class="cls-1" d="M366.85,37.94H344.48v5.3h22.37a2.65,2.65,0,0,0,2.71-2.72A2.62,2.62,0,0,0,366.85,37.94Z"/><path class="cls-1" d="M401,32.51V55.27a3.7,3.7,0,0,1-3.62,3.62A3.48,3.48,0,0,1,394,55.27V34.84c-1-8.66,7.63-18.49,17.58-9.31l.39.39c.13.13.13.13.13.26,5.3,7,9.18,14.61,14.09,22v.13c.26.52.52.91.78,1.42,2.84,4.27,7,4.27,7.11-1.16.13-4.65.13-17.46-.26-22.89A3.61,3.61,0,0,1,437.45,22c1.94,0,3.1,1.68,3.1,3.62v19c.39,5.95-1.42,10.86-2.84,12.28-1.94,2.2-4.53,2.84-7.24,2.84a4.87,4.87,0,0,1-1.42-.13c-5.56-1.16-16.42-20.56-18.36-23.27-.78-1-1.42-2.07-2.2-3.1a27,27,0,0,0-1.94-2.59C403.44,27.86,401,30.19,401,32.51ZM426.2,48.16a6.38,6.38,0,0,1,.52,1.68Z"/><path class="cls-1" d="M275.7,24A3.65,3.65,0,0,0,269,26.82a93.27,93.27,0,0,0,15.39,24.31c4,4.66,7.76,8,11.64,8.53s7.37-1.94,12.28-6.21c4.4-3.88,7.11-8.15,10-13.06A128.13,128.13,0,0,0,325,27.21a3.62,3.62,0,1,0-6.59-3,131.07,131.07,0,0,1-6.46,12.54c-2.2,3.62-10.21,16.42-15.39,15.78C290,51.65,279.06,31.74,275.7,24Z"/><path class="cls-1" d="M261.73,21.52h0a3.7,3.7,0,0,1,3.62,3.62V55.27a3.62,3.62,0,0,1-7.24,0V25.14A3.7,3.7,0,0,1,261.73,21.52Z"/><path class="cls-1" d="M107.74,30.19a3.58,3.58,0,0,1-4.53-2.33,3.65,3.65,0,0,1,2.46-4.53c16.81-3.23,26.89-.78,35.17,3.1,3.36,2.2,6.72,4.65,8.27,7.5A14.41,14.41,0,0,1,151.18,43c-.52,4.91-3.36,9.57-8.66,12.67a27.65,27.65,0,0,1-8.4,3.23,46.67,46.67,0,0,1-8.28,1,48.14,48.14,0,0,1-7.5,0,23.32,23.32,0,0,1-7.63-2.33A5,5,0,0,1,108.13,55l-.13.26V34.58c1.29-3.62,6.21-2.46,6.34,0l.52,16.81c-.78,3.49,8.66,2.2,10.6,2.07a44.37,44.37,0,0,0,7.24-.9,21.17,21.17,0,0,0,6.21-2.33,10.49,10.49,0,0,0,5-7.89,9,9,0,0,0-1.29-5.3,13.71,13.71,0,0,0-5-5.17C131.4,28.37,122.35,26.31,107.74,30.19Z"/><path class="cls-1" d="M204.84,24a3.65,3.65,0,1,0-6.72,2.84A93.28,93.28,0,0,0,213.5,51.13c4,4.66,7.76,8,11.64,8.53s7.37-1.94,12.28-6.21c4.4-3.88,7.11-8.15,10-13.06a128.16,128.16,0,0,0,6.72-13.19,3.62,3.62,0,0,0-6.59-3A130.93,130.93,0,0,1,241,36.78c-2.2,3.62-10.21,16.42-15.39,15.78C219.19,51.65,208.2,31.74,204.84,24Z"/><path class="cls-1" d="M199.8,57.47a3.65,3.65,0,0,0,6.72-2.84,93.31,93.31,0,0,0-15.39-24.31c-4-4.65-7.76-8-11.64-8.53s-7.37,1.94-12.28,6.21c-4.4,3.88-7.11,8.15-10,13.06a128.27,128.27,0,0,0-6.72,13.19,3.62,3.62,0,1,0,6.59,3,131,131,0,0,1,6.46-12.54C165.79,41,173.81,28.25,179,28.89,185.45,29.8,196.44,49.58,199.8,57.47Z"/><path class="cls-1" d="M450.38,30.19a3.58,3.58,0,0,1-4.53-2.33,3.65,3.65,0,0,1,2.46-4.53c16.81-3.23,26.89-.78,35.17,3.1,3.36,2.2,6.72,4.65,8.27,7.5A14.42,14.42,0,0,1,493.82,43c-.52,4.91-3.36,9.57-8.66,12.67a27.64,27.64,0,0,1-8.4,3.23,46.66,46.66,0,0,1-8.28,1,48.14,48.14,0,0,1-7.5,0,23.32,23.32,0,0,1-7.63-2.33A5,5,0,0,1,450.76,55l-.13.26V34.58c1.29-3.62,6.21-2.46,6.34,0l.52,16.81c-.78,3.49,8.66,2.2,10.6,2.07a44.35,44.35,0,0,0,7.24-.9,21.18,21.18,0,0,0,6.21-2.33,10.49,10.49,0,0,0,5-7.89,9,9,0,0,0-1.29-5.3,13.72,13.72,0,0,0-5-5.17C474.17,28.37,465,26.31,450.38,30.19Z"/><path class="cls-1" d="M499.77,57.47A3.65,3.65,0,0,1,493,54.62a93.3,93.3,0,0,1,15.39-24.31c4-4.65,7.76-8,11.64-8.53s7.37,1.94,12.28,6.21c4.4,3.88,7.11,8.15,10,13.06A128.33,128.33,0,0,1,549,54.23a3.62,3.62,0,1,1-6.59,3A131,131,0,0,0,536,44.67c-2.2-3.62-10.21-16.42-15.39-15.77C514.12,29.8,503.13,49.58,499.77,57.47Z"/><path class="cls-2" d="M70,29.41a21.77,21.77,0,0,0,5.17,15.77C86,58.24,71.28,72.34,54.6,68.84a84.33,84.33,0,0,1-14.09,1.29,84.32,84.32,0,0,1-14.09-1.29C9.73,72.21-5.4,58.24,5.47,45.18c5.82-7.11,5.43-14.35,5.17-15.77Z"/><path d="M70,29.41l-.28,0c0,.33-.07.9-.07,1.68a22.27,22.27,0,0,0,5.31,14.3,14.2,14.2,0,0,1,3.66,9.09c0,4-2.1,7.66-5.51,10.33a21.73,21.73,0,0,1-13.33,4.33,25,25,0,0,1-5.11-.53h-.11l-1.16.2a84.57,84.57,0,0,1-12.88,1.09,81.09,81.09,0,0,1-9.78-.64c-1.3-.16-2.36-.32-3.11-.44l-1.16-.2h-.11a25.31,25.31,0,0,1-5,.5A22.49,22.49,0,0,1,7.74,64.71C4.24,62,2.07,58.33,2.07,54.3a14,14,0,0,1,3.6-8.94h0A22.7,22.7,0,0,0,11,31.17a10.87,10.87,0,0,0-.13-1.81l-.27,0v.28H70v-.28l-.28,0,.28,0v-.28H10.31l.06.33a10.35,10.35,0,0,1,.12,1.71A22.15,22.15,0,0,1,5.25,45h0A14.52,14.52,0,0,0,1.52,54.3c0,4.24,2.28,8.08,5.89,10.85a23,23,0,0,0,13.95,4.48,25.87,25.87,0,0,0,5.11-.51l-.05-.27-.05.27a84.59,84.59,0,0,0,14.15,1.3,84.6,84.6,0,0,0,14.15-1.3l-.05-.27-.06.27a25.5,25.5,0,0,0,5.22.55,22.28,22.28,0,0,0,13.67-4.45,13.78,13.78,0,0,0,5.72-10.76A14.75,14.75,0,0,0,75.37,45a21.72,21.72,0,0,1-5.18-13.95c0-.75,0-1.31.07-1.63l0-.3H70Z"/><path class="cls-2" d="M53.31,66.26a9.5,9.5,0,0,1,2.84-4c.91-.78,2.59-.52,1.81,1A52.36,52.36,0,0,0,53.82,67C53.56,67.29,53.31,66.26,53.31,66.26ZM30.55,64.58h0a10.14,10.14,0,0,0-1.94-4.53c-.78-.91-2.46-.91-1.94.65.13.39,2.07,2.46,3.23,4.53C30,65.48,30.55,64.58,30.55,64.58Zm-3,1.68h0a9.5,9.5,0,0,0-2.84-4c-.91-.78-2.59-.52-1.81,1A52.32,52.32,0,0,1,27.06,67C27.32,67.29,27.58,66.26,27.58,66.26Zm22.76-1.68h0a10.14,10.14,0,0,1,1.94-4.53c.78-.91,2.46-.91,1.94.65-.13.39-2.07,2.46-3.23,4.53C50.85,65.48,50.33,64.58,50.33,64.58Z"/><path d="M53.31,66.26l.26.09s.05-.15.16-.41a8.85,8.85,0,0,1,2.58-3.47h0a1.51,1.51,0,0,1,.95-.36.75.75,0,0,1,.45.13.4.4,0,0,1,.15.34,1.36,1.36,0,0,1-.17.59l.25.12-.23-.15a3.74,3.74,0,0,1-.48.43,28,28,0,0,0-3.63,3.29l.21.18-.2-.2.11.11V66.8l-.11,0,.11.11v0l.09-.11-.09,0v.14l.09-.11,0,0a1.63,1.63,0,0,1-.16-.36c0-.14-.07-.25-.07-.25l-.27.07.26.09-.26-.09-.27.07a4.08,4.08,0,0,0,.14.44l.17.33.13.15.26.1.28-.12h0a20.44,20.44,0,0,1,2.52-2.37l1-.85a3.44,3.44,0,0,0,.59-.56h0v0a1.89,1.89,0,0,0,.23-.83,1,1,0,0,0-.37-.78,1.29,1.29,0,0,0-.79-.24A2.05,2.05,0,0,0,56,62l.18.21L56,62A9.75,9.75,0,0,0,53,66.17l0,.08,0,.08ZM30.55,64.58l.27,0a10.39,10.39,0,0,0-2-4.67,2,2,0,0,0-1.48-.71,1.1,1.1,0,0,0-.73.24,1,1,0,0,0-.32.77,2,2,0,0,0,.11.61,3,3,0,0,0,.44.66,32.62,32.62,0,0,1,2.81,3.91l.24-.14-.25.12a.35.35,0,0,0,.31.2.53.53,0,0,0,.37-.19,3.87,3.87,0,0,0,.45-.64l0-.08v-.09l-.27,0-.24-.14s-.09.16-.21.32l-.16.2,0,0,.07.11V65l-.07,0,.07.11v.07l.18-.09L30,65v.2l.18-.09h0a24.13,24.13,0,0,0-2-2.93l-.83-1.05L27,60.76,27,60.65l0,0h0a1.41,1.41,0,0,1-.08-.44.43.43,0,0,1,.13-.35.55.55,0,0,1,.37-.11,1.49,1.49,0,0,1,1.06.52,8.39,8.39,0,0,1,1.5,2.85c.14.44.24.83.3,1.1s.08.43.08.43l.27,0-.24-.14Zm-3,1.68.26-.09A9.75,9.75,0,0,0,24.89,62l-.16.22.18-.21a2.05,2.05,0,0,0-1.31-.49,1.29,1.29,0,0,0-.79.24,1,1,0,0,0-.37.78,1.89,1.89,0,0,0,.23.83v0h0a3.43,3.43,0,0,0,.59.56,27.61,27.61,0,0,1,3.57,3.22h0l.28.12.26-.1a1.35,1.35,0,0,0,.33-.57c.07-.19.11-.35.11-.36l0-.08,0-.08-.26.09-.27-.07a3.6,3.6,0,0,1-.12.38l-.11.23,0,0,.09.11V66.8l-.09,0,.09.11v0l.11-.11-.11,0v.15l.11-.11-.2.2.21-.18a21,21,0,0,0-2.59-2.44l-1-.85a3.73,3.73,0,0,1-.48-.43l-.23.15.25-.12a1.36,1.36,0,0,1-.17-.59.4.4,0,0,1,.15-.34.75.75,0,0,1,.45-.13,1.51,1.51,0,0,1,.94.36h0a7.88,7.88,0,0,1,2.07,2.45,10.84,10.84,0,0,1,.51,1c.11.26.16.41.16.41l.26-.09-.27-.07Zm22.76-1.68.27,0s0-.16.08-.43a9.45,9.45,0,0,1,1.79-4,1.49,1.49,0,0,1,1.06-.52.55.55,0,0,1,.37.11.42.42,0,0,1,.13.35,1.41,1.41,0,0,1-.08.44h0a4.88,4.88,0,0,1-.41.57,31.88,31.88,0,0,0-2.8,3.9h0l.18.09V65l-.18.11.18.09v-.07L51,65l-.07,0v.13L51,65a1.5,1.5,0,0,1-.25-.31c-.09-.14-.17-.26-.17-.26l-.24.14.27,0-.27,0-.24.14s.1.18.24.37l.22.27a.53.53,0,0,0,.37.19.35.35,0,0,0,.31-.2L51,65.22l.24.14a23.62,23.62,0,0,1,2-2.86L54,61.45a3,3,0,0,0,.44-.66,2,2,0,0,0,.11-.61,1,1,0,0,0-.32-.77,1.1,1.1,0,0,0-.73-.24,2,2,0,0,0-1.48.71,10.39,10.39,0,0,0-2,4.67v.09l0,.08Z"/><path class="cls-3" d="M48.26,64.19s5-15.9-2.59-25.34a5.19,5.19,0,0,1-2.07-1,3.2,3.2,0,0,0-2.84-1.42,5.82,5.82,0,0,0-3.49,1.42,7.71,7.71,0,0,1-2.46,1c-7.5,9.44-2.33,25.47-2.33,25.47C40.38,61.35,48.13,64.19,48.26,64.19Z"/><path d="M48.26,64.19l.26.08a42.1,42.1,0,0,0,1.65-11.42c0-4.71-.94-10-4.28-14.18l-.06-.08-.1,0a4.92,4.92,0,0,1-1.95-1l-.17.22.24-.13a3.47,3.47,0,0,0-3.09-1.57,6.08,6.08,0,0,0-3.68,1.5l.19.2-.14-.24a7.46,7.46,0,0,1-2.36,1l-.11,0-.07.08c-3.21,4-4.12,9.24-4.13,13.89A43.06,43.06,0,0,0,32.23,64.4l.09.28.27-.1a21.74,21.74,0,0,1,7.68-1.34,26.86,26.86,0,0,1,5.61.61c.7.15,1.27.3,1.66.42l.46.14.13,0h.33l.06-.19-.26-.08v0l0-.24h0v.24l0-.24V64l0-.06h0V64l0-.06-.74-.22a27.42,27.42,0,0,0-7.31-1,22.29,22.29,0,0,0-7.87,1.37l.1.26.26-.09s-.11-.33-.27-.93A43.15,43.15,0,0,1,31,52.56c0-4.58.91-9.65,4-13.54l-.22-.17,0,.27a8,8,0,0,0,2.55-1.07l0,0,0,0,.06-.05a5.5,5.5,0,0,1,3.24-1.3,3.19,3.19,0,0,1,2,.65,2.68,2.68,0,0,1,.45.44l.1.14,0,0h0l0,0,0,0a5.46,5.46,0,0,0,2.19,1.09l.05-.27-.22.17c3.23,4,4.16,9.19,4.16,13.83a41.49,41.49,0,0,1-.81,7.93c-.2,1-.41,1.86-.56,2.43s-.25.89-.25.89l.26.08v0Z"/><path class="cls-1" d="M45.94,53.07a1.3,1.3,0,0,1,1.29-1.29,1.39,1.39,0,0,1,1.29,1.29,1.29,1.29,0,0,1-2.59,0Z"/><path d="M45.94,53.07h.28a1,1,0,0,1,.32-.74,1,1,0,0,1,.7-.28,1.12,1.12,0,0,1,1,1,1,1,0,0,1-.32.74,1,1,0,0,1-1.4,0,1,1,0,0,1-.32-.74h-.55a1.53,1.53,0,1,0,1.57-1.57,1.57,1.57,0,0,0-1.57,1.57Z"/><path class="cls-4" d="M14.13,39.88h9.7a2.73,2.73,0,0,1,2.72,2.72v6.46a2.73,2.73,0,0,1-2.72,2.71h-9.7a2.73,2.73,0,0,1-2.72-2.71V42.6A2.65,2.65,0,0,1,14.13,39.88Z"/><path d="M14.13,39.88v.28h9.7a2.46,2.46,0,0,1,2.44,2.44v6.46a2.46,2.46,0,0,1-2.44,2.44h-9.7a2.46,2.46,0,0,1-2.44-2.44V42.59h0V42.4a2.15,2.15,0,0,1,.72-1.56,2.55,2.55,0,0,1,1.73-.68v-.55a3,3,0,0,0-3,2.8v.22l.28,0h-.28v6.46a3,3,0,0,0,3,3h9.7a3,3,0,0,0,3-3V42.6a3,3,0,0,0-3-3h-9.7Z"/><path d="M15.16,41.43h7.63a2,2,0,0,1,2.07,2.07v4.65a2,2,0,0,1-2.07,2.07H15.16a2,2,0,0,1-2.07-2.07V43.5A2.13,2.13,0,0,1,15.16,41.43Z"/><path d="M15.16,41.43v.28h7.63a1.76,1.76,0,0,1,1.79,1.79v4.65a1.76,1.76,0,0,1-1.79,1.79H15.16a1.76,1.76,0,0,1-1.79-1.79V43.5a1.76,1.76,0,0,1,.56-1.27,1.82,1.82,0,0,1,1.23-.52v-.55a2.4,2.4,0,0,0-2.35,2.35v4.65a2.32,2.32,0,0,0,2.35,2.34h7.63a2.32,2.32,0,0,0,2.35-2.34V43.5a2.32,2.32,0,0,0-2.35-2.35H15.16Z"/><path class="cls-5" d="M25,47.12c-3.49-.39-4.65-4.4-4.91-5.56h2.84A2,2,0,0,1,25,43.63Z"/><path d="M25,47.12l0-.27a4.71,4.71,0,0,1-3.47-2.36,9.82,9.82,0,0,1-1.21-3l-.27.06v.28h2.84a1.76,1.76,0,0,1,1.79,1.79v3.49H25l0-.27,0,.27h.28V43.63a2.32,2.32,0,0,0-2.34-2.34H19.73l.07.34a10.36,10.36,0,0,0,1.28,3.16A5.27,5.27,0,0,0,25,47.4l.31,0v-.31Z"/><path class="cls-5" d="M18.14,41.43c-.26,1.16-1.29,5.43-5,5.56V43.5a2,2,0,0,1,2.07-2.07Z"/><path d="M18.14,41.43l-.27-.06a10.17,10.17,0,0,1-1.18,3.08,4.31,4.31,0,0,1-3.6,2.26V47h.28V43.5a1.76,1.76,0,0,1,1.79-1.79h3v-.28l-.27-.06.27.06v-.28h-3a2.32,2.32,0,0,0-2.35,2.35v3.78h.29a4.87,4.87,0,0,0,4.06-2.52,10.7,10.7,0,0,0,1.25-3.25l.07-.34h-.34Z"/><path class="cls-4" d="M57.06,39.88h9.7a2.73,2.73,0,0,1,2.72,2.72v6.46a2.73,2.73,0,0,1-2.72,2.71h-9.7a2.73,2.73,0,0,1-2.72-2.71V42.6A2.73,2.73,0,0,1,57.06,39.88Z"/><path d="M57.06,39.88v.28h9.7a2.46,2.46,0,0,1,2.44,2.44v6.46a2.46,2.46,0,0,1-2.44,2.44h-9.7a2.46,2.46,0,0,1-2.44-2.44V42.6a2.46,2.46,0,0,1,2.44-2.44v-.55a3,3,0,0,0-3,3v6.46a3,3,0,0,0,3,3h9.7a3,3,0,0,0,3-3V42.6a3,3,0,0,0-3-3h-9.7Z"/><rect x="56.15" y="41.43" width="11.77" height="8.79" rx="2.07" ry="2.07"/><path d="M58.22,41.43v.28h7.63a1.76,1.76,0,0,1,1.79,1.79v4.65a1.76,1.76,0,0,1-1.79,1.79H58.22a1.76,1.76,0,0,1-1.79-1.79V43.5a1.76,1.76,0,0,1,1.79-1.79v-.55a2.32,2.32,0,0,0-2.35,2.35v4.65a2.32,2.32,0,0,0,2.35,2.34h7.63a2.32,2.32,0,0,0,2.35-2.34V43.5a2.32,2.32,0,0,0-2.35-2.35H58.22Z"/><path class="cls-5" d="M67.92,47.12c-3.49-.39-4.65-4.4-4.91-5.56h2.84a2,2,0,0,1,2.07,2.07Z"/><path d="M67.92,47.12l0-.27a4.71,4.71,0,0,1-3.47-2.36,9.81,9.81,0,0,1-1.21-3l-.27.06v.28h2.84a1.76,1.76,0,0,1,1.79,1.79v3.49h.28l0-.27,0,.27h.28V43.63a2.32,2.32,0,0,0-2.35-2.34H62.66l.07.34A10.34,10.34,0,0,0,64,44.78a5.27,5.27,0,0,0,3.87,2.62l.31,0v-.31Z"/><path class="cls-5" d="M61.06,41.43c-.26,1.16-1.29,5.43-5,5.56V43.5a2,2,0,0,1,2.07-2.07Z"/><path d="M61.06,41.43l-.27-.06a10.17,10.17,0,0,1-1.18,3.08A4.31,4.31,0,0,1,56,46.72V47h.28V43.5a1.76,1.76,0,0,1,1.79-1.79h3v-.28l-.27-.06.27.06v-.28h-3a2.32,2.32,0,0,0-2.35,2.35v3.78H56a4.87,4.87,0,0,0,4.06-2.52,10.7,10.7,0,0,0,1.25-3.25l.07-.34h-.34Z"/><path class="cls-6" d="M30.68,63.29s-2.59.39-3.62,1.94A2.55,2.55,0,0,0,28.35,69a49.51,49.51,0,0,0,11.9,1,43.53,43.53,0,0,0,12-1,2.59,2.59,0,0,0,1.29-3.75c-.9-1.55-3.62-1.94-3.62-1.94C49.81,61.86,30.94,62.38,30.68,63.29Z"/><path d="M30.68,63.29l0-.27a8.06,8.06,0,0,0-1.48.4,4.79,4.79,0,0,0-2.33,1.66,2.62,2.62,0,0,0-.45,1.47A3,3,0,0,0,27,68.29a2.35,2.35,0,0,0,1.33,1l.06-.27-.06.27A53.16,53.16,0,0,0,39,70.34l.89,0,.26,0,.1,0,.17-.09-.19-.2-.2.2.12.07.24,0c.3,0,.86,0,1.61,0a43.68,43.68,0,0,0,10.31-1.12h0a3,3,0,0,0,1.88-2.72,2.58,2.58,0,0,0-.45-1.45l-.23.15.24-.14a4.33,4.33,0,0,0-2.29-1.67A8.32,8.32,0,0,0,50,63l0,.27.28,0a.58.58,0,0,0-.33-.44,3.77,3.77,0,0,0-1.15-.34,47.53,47.53,0,0,0-6.85-.36c-2.61,0-5.39.1-7.53.25-1.07.08-2,.17-2.65.28a6,6,0,0,0-.81.18l-.27.11a.44.44,0,0,0-.22.26l.27.08,0-.27,0,.27.27.08-.16,0,.12.12,0-.07-.16,0,.12.12,0,0,0,0h0l0,0,0,0a1.32,1.32,0,0,1,.36-.12,67.51,67.51,0,0,1,10.63-.64c2.1,0,4.09.06,5.56.2a11.79,11.79,0,0,1,1.74.27,1.88,1.88,0,0,1,.43.16l.07,0,0,0h0l0,0h0l.09,0h-.1v0l.09,0h-.1l0,.22.22,0,.42.08c.78.17,2.42.7,3,1.72h0a2,2,0,0,1,.35,1.14,2.46,2.46,0,0,1-1.5,2.19l.09.26-.07-.27A43.21,43.21,0,0,1,42,69.81l-1.26,0-.35,0h-.08l-.05.22.15-.16-.1-.06-.05.22.15-.16-.19-.19-.2.19.15.15,0-.21-.1.06.15.15,0-.21-.35,0H39A52.67,52.67,0,0,1,28.42,68.7h0a1.82,1.82,0,0,1-1-.74,2.47,2.47,0,0,1-.48-1.43,2.06,2.06,0,0,1,.35-1.16,4.27,4.27,0,0,1,2.07-1.45,8,8,0,0,1,1-.29l.4-.08.18,0,0-.17Z"/><path d="M30.6,63.56l.64-.1a64.39,64.39,0,0,1,8.66-.53A82.91,82.91,0,0,1,50,63.56l.07-.55a83.39,83.39,0,0,0-10.21-.63,59.26,59.26,0,0,0-9.4.64l.1.54Z"/><path class="cls-2" d="M60.16,10.92V3.16l9.44-.52L70,14.93C64.81,11.57,64.68,13,60.16,10.92Z"/><path d="M60.16,10.92h.71V3.83l8.05-.44L69.28,15l.7,0,.38-.59A17,17,0,0,0,65,11.76a20.94,20.94,0,0,1-4.55-1.48l-.29.64h0l-.29.64a22.25,22.25,0,0,0,4.79,1.56,15.55,15.55,0,0,1,4.95,2.4l1.13.74L70.28,1.9l-10.83.59v8.88l.41.19Z"/><path d="M69.28,29.35c0,.33-.07.92-.07,1.71a22.7,22.7,0,0,0,5.41,14.57,13.77,13.77,0,0,1,3.56,8.81c0,3.85-2,7.38-5.34,10a21.3,21.3,0,0,1-13.06,4.24,24.52,24.52,0,0,1-5-.52l-.14,0-.14,0-1.15.2a84.16,84.16,0,0,1-12.81,1.08,80.7,80.7,0,0,1-9.72-.64c-1.29-.16-2.35-.32-3.09-.44l-1.15-.2-.14,0-.14,0a24.88,24.88,0,0,1-4.92.49A22.07,22.07,0,0,1,8,64.37c-3.42-2.63-5.5-6.2-5.5-10.07A13.54,13.54,0,0,1,6,45.63H6a23.13,23.13,0,0,0,5.45-14.46,11.26,11.26,0,0,0-.13-1.88l-1.39.25a10,10,0,0,1,.11,1.63A21.72,21.72,0,0,1,4.92,44.74h0A15,15,0,0,0,1.09,54.3c0,4.4,2.37,8.36,6.05,11.19a23.47,23.47,0,0,0,14.21,4.57,26.3,26.3,0,0,0,5.19-.52l-.14-.69-.13.69a85,85,0,0,0,14.23,1.31,85,85,0,0,0,14.23-1.31l-.13-.69-.14.69a25.94,25.94,0,0,0,5.31.55A22.7,22.7,0,0,0,73.7,65.55a14.21,14.21,0,0,0,5.89-11.1,15.18,15.18,0,0,0-3.89-9.71,21.29,21.29,0,0,1-5.08-13.67c0-.73,0-1.28.07-1.59l-1.41-.12Z"/><path class="cls-6" d="M40.25.71a12.5,12.5,0,0,0-2.46.52S15.16,9,2.62,21.39c-3.49,3.49-1.94,8,2.46,8H75.16c4.4,0,5.95-4.53,2.46-8C65.2,9,42.44,1.22,42.44,1.22A9,9,0,0,0,40.25.71Z"/><path d="M40.25.71V0a8,8,0,0,0-1.69.28c-.54.13-1,.27-1,.27h0A130.14,130.14,0,0,0,24.6,6C17.34,9.53,8.5,14.59,2.13,20.89h0A6.59,6.59,0,0,0,0,25.49a4.46,4.46,0,0,0,1.38,3.29,5.27,5.27,0,0,0,3.7,1.34H75.16a5.27,5.27,0,0,0,3.7-1.34,4.46,4.46,0,0,0,1.38-3.29,6.59,6.59,0,0,0-2.12-4.59C71.81,14.59,63,9.53,55.68,6a129.66,129.66,0,0,0-13-5.46l-.23.67.24-.66s-.38-.14-.86-.27A6.35,6.35,0,0,0,40.25,0V1.41a5.27,5.27,0,0,1,1.2.23l.54.17.22.07h0l1,.35c4.48,1.63,23.22,8.94,33.91,19.65a5.2,5.2,0,0,1,1.71,3.59,3,3,0,0,1-.94,2.26,3.87,3.87,0,0,1-2.73,1H5.08a3.87,3.87,0,0,1-2.73-1,3,3,0,0,1-.94-2.26,5.2,5.2,0,0,1,1.71-3.59h0C9.29,15.78,18,10.76,25.22,7.29c3.59-1.74,6.8-3.09,9.1-4,1.15-.46,2.08-.81,2.72-1l1-.35-.23-.67L38,1.9l.26-.08c.25-.07.63-.18,1-.26a5.28,5.28,0,0,1,1-.15Z"/><path class="cls-4" d="M44.26,35.87A15,15,0,0,1,49,40,20.45,20.45,0,0,1,52.4,56s2.07,2.07,5.82,5.69c2.2,2.2-1.29,5.43-2.84,7.5H51.24s1.55-1.94.52-3.75c-.65-1.29-3.1-1.68-3.1-1.68s1.16-2.59-.78-3.23c0,0,3.62-9.31-.39-17.71-1.29-2.72-3.23-5.3-6.46-5.69a7.16,7.16,0,0,0-2.33.26c-2.84,1-4.27,3-5.56,5.82C29.26,51.39,33,60.57,33,60.57c-1.81.65-.65,3.23-.65,3.23s-2.46.39-3.1,1.68c-1,1.81.52,3.75.52,3.75H25.64c-1-1.42-4.4-5.3-3.36-7.89,1.29-2.46,6.21-5.3,6.21-5.3a20,20,0,0,1,3-15.39,14.55,14.55,0,0,1,6.21-5.17C40.25,34.45,41.8,34.45,44.26,35.87Z"/><path d="M44.26,35.87l-.13.24a14.72,14.72,0,0,1,4.69,4.06L49,40l-.22.16a20.6,20.6,0,0,1,3.77,11.69A19.14,19.14,0,0,1,52.13,56l0,.15.11.11s2.07,2.07,5.82,5.69l.19-.2-.19.19a2,2,0,0,1,.63,1.45,5.47,5.47,0,0,1-1.27,2.91c-.73,1-1.61,2-2.22,2.79l.22.16V69H51.24v.27l.21.17a4.59,4.59,0,0,0,.93-2.57A3,3,0,0,0,52,65.35l-.24.14.25-.12a3.46,3.46,0,0,0-1.94-1.46,7.86,7.86,0,0,0-1.36-.37l0,.27.25.11a4.63,4.63,0,0,0,.37-1.69A2.2,2.2,0,0,0,49,61.12a1.82,1.82,0,0,0-1-.81l-.09.26.26.1a27.21,27.21,0,0,0,1.52-8.95,20.8,20.8,0,0,0-1.91-9c-1.3-2.74-3.3-5.43-6.68-5.84h0a7.41,7.41,0,0,0-2.41.27h0c-2.93,1.06-4.42,3.1-5.72,6l.25.11-.25-.12a19.47,19.47,0,0,0-1.78,8.4,26.7,26.7,0,0,0,1.65,9.14l.25-.1-.09-.26a1.7,1.7,0,0,0-1,.78,2.18,2.18,0,0,0-.24,1.06,4.86,4.86,0,0,0,.39,1.76l.25-.11,0-.27A7.85,7.85,0,0,0,31,63.9,3.46,3.46,0,0,0,29,65.36l.25.12L29,65.35a3,3,0,0,0-.39,1.49,4.58,4.58,0,0,0,.93,2.57l.21-.17V69H25.64v.27l.22-.16c-.46-.63-1.34-1.7-2.1-2.92a7.69,7.69,0,0,1-1.4-3.73,2.59,2.59,0,0,1,.18-1l-.25-.1.24.13A12.56,12.56,0,0,1,26,58c.69-.5,1.34-.93,1.82-1.24s.78-.48.78-.48l.17-.1,0-.2a19.5,19.5,0,0,1-.45-4.17,20.06,20.06,0,0,1,3.39-11h0a14.29,14.29,0,0,1,6.09-5.07l-.11-.25.1.25a8.1,8.1,0,0,1,3-.71,6.56,6.56,0,0,1,3.35,1.08h0l.13-.24.14-.24a7.1,7.1,0,0,0-3.63-1.16,8.63,8.63,0,0,0-3.2.75h0a14.82,14.82,0,0,0-6.33,5.28l.23.15-.23-.15a20.61,20.61,0,0,0-3.48,11.31,20,20,0,0,0,.47,4.28l.27-.06-.14-.24s-1.24.72-2.64,1.75A13,13,0,0,0,22,61.22h0a3.14,3.14,0,0,0-.22,1.17,8.18,8.18,0,0,0,1.48,4c.79,1.26,1.69,2.35,2.13,3l.08.11h4.85L30,69.06l0,0a4,4,0,0,1-.78-2.19,2.4,2.4,0,0,1,.32-1.21h0a3,3,0,0,1,1.64-1.19,7.48,7.48,0,0,1,.88-.27l.37-.08.35-.06-.15-.33-.05-.13a4.23,4.23,0,0,1-.29-1.41,1.64,1.64,0,0,1,.18-.8,1.15,1.15,0,0,1,.66-.53l.27-.1-.11-.27s-.1-.24-.25-.69a26.79,26.79,0,0,1-1.36-8.25,18.92,18.92,0,0,1,1.73-8.17h0c1.29-2.82,2.64-4.67,5.4-5.67l-.09-.26.09.26A6.91,6.91,0,0,1,41,37.44v-.27l0,.27c3.09.37,5,2.84,6.25,5.54a20.25,20.25,0,0,1,1.86,8.75A27.45,27.45,0,0,1,48.36,58c-.19.79-.37,1.42-.51,1.85s-.23.66-.23.66l-.1.27.27.09a1.27,1.27,0,0,1,.74.57,1.66,1.66,0,0,1,.19.83,3.68,3.68,0,0,1-.16,1c0,.14-.08.25-.11.33l0,.12-.15.33.35.06.37.08a6.83,6.83,0,0,1,1.39.48,2.43,2.43,0,0,1,1.14,1h0a2.4,2.4,0,0,1,.32,1.21,3.59,3.59,0,0,1-.41,1.57,4.61,4.61,0,0,1-.28.49l-.09.13,0,0-.36.45h4.85l.08-.11c.59-.78,1.48-1.76,2.23-2.79a6,6,0,0,0,1.38-3.23,2.52,2.52,0,0,0-.79-1.83h0c-1.87-1.81-3.33-3.23-4.31-4.2l-1.5-1.49L52.4,56l.27.06a19.69,19.69,0,0,0,.46-4.24,21.14,21.14,0,0,0-3.87-12h0a15.26,15.26,0,0,0-4.87-4.22l-.13.24.14-.24Z"/></g></g></svg>